<?xml version="1.0" encoding="utf-8"?>
<!-- Generator: Adobe Illustrator 17.0.0, SVG Export Plug-In . SVG Version: 6.00 Build 0)  -->
<!DOCTYPE svg PUBLIC "-//W3C//DTD SVG 1.1//EN" "http://www.w3.org/Graphics/SVG/1.1/DTD/svg11.dtd">
<svg version="1.1" id="Layer_1" xmlns="http://www.w3.org/2000/svg" xmlns:xlink="http://www.w3.org/1999/xlink" x="0px" y="0px"
	 width="512px" height="512px" viewBox="0 0 512 512" enable-background="new 0 0 512 512" xml:space="preserve">
<g id="Shape_111">
	<g>
		<path fill-rule="evenodd" clip-rule="evenodd" fill="#FF6600" d="M416.678,34.102H95.283c-50.886,0-92.287,41.418-92.287,92.306
			v126.327c0,48.241,37.163,87.923,84.329,91.975l0.888,133.187l148.359-132.857h180.107c50.908,0,92.326-41.398,92.326-92.306
			V126.408C509.004,75.521,467.586,34.102,416.678,34.102z M154.31,220.162c-14.88,0-26.929-12.051-26.929-26.952
			c0-14.881,12.049-26.954,26.929-26.954c14.883,0,26.933,12.073,26.933,26.954C181.243,208.11,169.193,220.162,154.31,220.162z
			 M266.52,220.162c-14.88,0-26.931-12.051-26.931-26.952c0-14.881,12.051-26.954,26.931-26.954
			c14.903,0,26.972,12.073,26.972,26.954C293.493,208.11,281.424,220.162,266.52,220.162z M378.751,220.162
			c-14.882,0-26.929-12.051-26.929-26.952c0-14.881,12.048-26.954,26.929-26.954c14.881,0,26.953,12.073,26.953,26.954
			C405.703,208.11,393.632,220.162,378.751,220.162z"/>
	</g>
</g>
</svg>
